<svg xmlns="http://www.w3.org/2000/svg" width="1094" height="998" fill="none">
    <path d="M571.6 286.7 267.9 814.1 243 857l-78.3 135.7H50l-43.3-75 57-98.7 81.7-141.8L473.9 107 532.7 5h86.4l57.4 99.8-105 182Z"
          stroke="#fff" stroke-width="10"/>
    <path d="M555 814 452.2 992.9H250.9l38-66.2 62-107.5-4.3-2.5 4.3 2.5 266.7-462.5.6-1.2v-.2l101.3-175.8 102 177.2 37.2 64.7L1088 819l53.3 92.6-46.6 81.1H987L884 814.1 761 600.7 723.8 536l-4.3-7.5-4.4 7.5L555 814Z"
          stroke="#fff" stroke-width="10"/>
</svg>