<svg xmlns="http://www.w3.org/2000/svg" width="55" height="55" fill="none">
    <path d="M26 1H29.6l3.7.6c10 2.1 18.2 10.6 20 20.5l.6 3.6v3.2l-.1.4-.5 3.5A26.3 26.3 0 0 1 16.5 51h-1c-3.1.5-6.3 1.2-9.4 1.9l-4.9 1c-.3 0-.2-.2-.2-.3l.1-.3 2.9-14c0-.3 0-.6-.2-.8-1.3-3-2.1-6-2.4-9.1-.4-6 1-11.6 4.3-16.6 4.1-6 9.7-9.8 16.8-11.3L26 1ZM4.2 50.7h.3l11-2.3c.6-.1 1-.1 1.6.2A23.8 23.8 0 1 0 6.5 38.2v.7L4.3 50.7Z" fill="#fff" stroke="#fff" stroke-width="0.9796"/>
    <path d="M34 42.4a21.4 21.4 0 0 1-21.2-24 6 6 0 0 1 1.3-3l2.1-2.2c1.6-1.3 4-1.2 5.5.1l3.6 3.6c1.6 1.7 1.5 4.2-.2 6-.6.5-1 1.2-1.2 2-.1 1 .2 2 .9 2.7a59 59 0 0 0 2.4 2.4A3.3 3.3 0 0 0 32 30c1.4-1.3 3-1.7 4.7-1.1.6.2 1.2.6 1.6 1l3 3c2 2 1.9 4.4 0 6.3A8.5 8.5 0 0 1 37 42l-3 .4Zm0-2.7h1.8c1.8-.2 3-1.5 4-2.8.5-.6.4-1.5-.1-2a87.4 87.4 0 0 0-3.4-3.4c-.6-.6-1.5-.6-2.2-.1l-.6.5a5.7 5.7 0 0 1-8 0L23 29.3a5.6 5.6 0 0 1-1.3-5.4 6 6 0 0 1 1.7-2.8c.8-.8.8-1.8.1-2.5-1-1.2-2.2-2.3-3.3-3.3-.7-.7-1.7-.7-2.4 0l-1.4 1.4c-.6.7-1 1.6-1.1 2.6A18.6 18.6 0 0 0 34 39.7Z" fill="#fff"/>
</svg>